<svg width="20" height="20" viewBox="0 0 20 20" fill="none" xmlns="http://www.w3.org/2000/svg">
<g clip-path="url(#clip0_3090_164)">
<path d="M1.70801 1.70813H3.37467L5.59134 12.0581C5.67266 12.4372 5.88357 12.776 6.18777 13.0163C6.49197 13.2567 6.87043 13.3834 7.25801 13.3748H15.408C15.7873 13.3742 16.1551 13.2442 16.4505 13.0063C16.746 12.7684 16.9515 12.4369 17.033 12.0665L18.408 5.8748H4.26634M7.49963 17.5C7.49963 17.9602 7.12654 18.3333 6.6663 18.3333C6.20606 18.3333 5.83297 17.9602 5.83297 17.5C5.83297 17.0397 6.20606 16.6666 6.6663 16.6666C7.12654 16.6666 7.49963 17.0397 7.49963 17.5ZM16.6663 17.5C16.6663 17.9602 16.2932 18.3333 15.833 18.3333C15.3727 18.3333 14.9996 17.9602 14.9996 17.5C14.9996 17.0397 15.3727 16.6666 15.833 16.6666C16.2932 16.6666 16.6663 17.0397 16.6663 17.5Z" stroke="black" stroke-width="2" stroke-linecap="round" stroke-linejoin="round"/>
</g>
<defs>
<clipPath id="clip0_3090_164">
<rect width="20" height="20" fill="white"/>
</clipPath>
</defs>
</svg>
